#!OML:ASF H:\Punching\Project 1\Capture day 1\Session 1\female.ASF
:FULLY-SPECIFIED
:DEGREES
1863
root -2.95507 15.8187 8.14169 16.5614 2.01313 -6.36373
lowerback 4.09453 -1.86871 9.94922
upperback -3.64738 -1.56756 4.38746
thorax -6.31863 -1.10298 -0.792926
lowerneck -11.9164 -3.86606 3.84965
upperneck 20.1556 -5.67987 -2.26966
head 8.0168 -2.63021 -1.97155
rclavicle 9.34288e-015 -7.95139e-016
rhumerus -45.8632 -24.1479 -44.6906
rradius 21.4796
rwrist 9.50672
rhand -18.5801 -14.9975
rfingers 7.12502
rthumb 7.71041 -44.8369
lclavicle 9.34288e-015 -7.95139e-016
lhumerus -58.2585 9.20723 71.8773
lradius 28.3322
lwrist -13.8309
lhand 10.4835 19.6153
lfingers 7.12502
lthumb 35.5848 46.0327
rfemur -27.2325 9.83214 25.3958
rtibia 24.3928
rfoot -10.6988 -6.81074
rtoes 2.03614
lfemur -42.0995 -0.218878 -13.8187
ltibia 72.8815
lfoot -4.13013 -0.254469
ltoes -14.5556
1864
root -2.95591 15.8289 8.16225 16.3674 2.29454 -6.35523
lowerback 4.06363 -1.89343 9.83764
upperback -3.66978 -1.61203 4.35579
thorax -6.32491 -1.12145 -0.761048
lowerneck -11.8446 -4.25649 3.50277
upperneck 19.7339 -6.19497 -1.99478
head 7.86784 -2.88073 -1.86159
rclavicle -1.98785e-016 -1.35174e-014
rhumerus -46.8474 -23.6507 -44.4668
rradius 21.3996
rwrist 10.7658
rhand -18.1747 -15.0431
rfingers 7.12502
rthumb 8.10168 -44.8678
lclavicle -1.98785e-016 -1.35174e-014
lhumerus -58.7559 9.53603 71.1347
lradius 28.0435
lwrist -14.5294
lhand 11.2503 19.3724
lfingers 7.12502
lthumb 36.3112 45.6118
rfemur -26.6905 9.78334 25.4488
rtibia 23.9658
rfoot -10.5875 -7.02834
rtoes 1.98569
lfemur -42.1059 -0.417278 -13.186
ltibia 72.78
lfoot -4.37774 0.0552885
ltoes -14.9514
1865
root -2.9552 15.8406 8.18293 16.1854 2.53542 -6.3182
lowerback 4.0062 -1.91852 9.7118
upperback -3.68748 -1.66378 4.29388
thorax -6.31148 -1.14294 -0.753638
lowerneck -11.7363 -4.62465 3.17254
upperneck 19.3041 -6.67909 -1.72323
head 7.71392 -3.11641 -1.7512
rclavicle 4.1546e-014 -5.08889e-014
rhumerus -47.734 -23.2701 -44.3174
rradius 21.2926
rwrist 12.0188
rhand -17.695 -15.0108
rfingers 7.12502
rthumb 8.56465 -44.8171
lclavicle 4.1546e-014 -5.08889e-014
lhumerus -59.1674 9.89519 70.3273
lradius 27.73
lwrist -15.2612
lhand 11.8924 19.108
lfingers 7.12502
lthumb 36.9189 45.1934
rfemur -26.158 9.74515 25.4615
rtibia 23.5318
rfoot -10.4675 -7.23502
rtoes 1.92117
lfemur -42.0224 -0.58737 -12.5615
ltibia 72.5819
lfoot -4.64867 0.434197
ltoes -15.2267
1866
root -2.95257 15.8534 8.20356 16.0168 2.72984 -6.25438
lowerback 3.92566 -1.94134 9.57513
upperback -3.70293 -1.7181 4.20362
thorax -6.28272 -1.16547 -0.770839
lowerneck -11.6007 -4.9743 2.85512
upperneck 18.8759 -7.1369 -1.45805
head 7.55939 -3.33988 -1.64163
rclavicle 1.82882e-014 1.59028e-015
rhumerus -48.521 -22.9737 -44.2579
rradius 21.1769
rwrist 13.1585
rhand -17.1713 -14.9482
rfingers 7.12502
rthumb 9.07008 -44.7332
lclavicle 1.82882e-014 1.59028e-015
lhumerus -59.4945 10.2784 69.4763
lradius 27.4067
lwrist -15.9623
lhand 12.3886 18.878
lfingers 7.12502
lthumb 37.3882 44.8411
rfemur -25.6408 9.71212 25.4345
rtibia 23.0982
rfoot -10.3431 -7.41651
rtoes 1.83956
lfemur -41.8489 -0.72875 -11.956
ltibia 72.2842
lfoot -4.95839 0.881444
ltoes -15.4026
1867
root -2.94806 15.867 8.22385 15.8662 2.87123 -6.17765
lowerback 3.82274 -1.95972 9.43378
upperback -3.71781 -1.77073 4.09345
thorax -6.2406 -1.18714 -0.807459
lowerneck -11.4454 -5.3062 2.54343
upperneck 18.4563 -7.56873 -1.19979
head 7.40774 -3.55168 -1.53234
rclavicle 1.22253e-014 1.35174e-014
rhumerus -49.1911 -22.7311 -44.3143
rradius 21.057
rwrist 14.1099
rhand -16.6542 -14.8564
rfingers 7.12502
rthumb 9.56899 -44.6191
lclavicle 1.22253e-014 1.35174e-014
lhumerus -59.7449 10.6904 68.5977
lradius 27.0886
lwrist -16.5982
lhand 12.719 18.7071
lfingers 7.12502
lthumb 37.7004 44.5872
rfemur -25.1503 9.69265 25.38
rtibia 22.6699
rfoot -10.2094 -7.56946
rtoes 1.76955
lfemur -41.5968 -0.828932 -11.3623
ltibia 71.8909
lfoot -5.31524 1.38103
ltoes -15.4851
1868
root -2.94149 15.8808 8.2437 15.7349 2.95732 -6.08915
lowerback 3.69961 -1.97268 9.28967
upperback -3.73131 -1.81976 3.9651
thorax -6.18544 -1.20703 -0.862827
lowerneck -11.2967 -5.62005 2.24598
upperneck 18.0618 -7.97458 -0.962575
head 7.2676 -3.75201 -1.43051
rclavicle 7.35503e-015 -3.97569e-014
rhumerus -49.7329 -22.5215 -44.5068
rradius 20.948
rwrist 14.8131
rhand -16.1418 -14.805
rfingers 7.12502
rthumb 10.0634 -44.5444
lclavicle 7.35503e-015 -3.97569e-014
lhumerus -59.9185 11.1262 67.7141
lradius 26.7858
lwrist -17.1408
lhand 12.8886 18.6212
lfingers 7.12502
lthumb 37.8606 44.4582
rfemur -24.6881 9.68024 25.2997
rtibia 22.2465
rfoot -10.0692 -7.68391
rtoes 1.69569
lfemur -41.2696 -0.892818 -10.787
ltibia 71.4012
lfoot -5.70838 1.9248
ltoes -15.4679
1869
root -2.93283 15.8946 8.26225 15.6182 2.9985 -6.00286
lowerback 3.56409 -1.97748 9.16224
upperback -3.75216 -1.85798 3.82403
thorax -6.13132 -1.22292 -0.941871
lowerneck -11.1762 -5.92229 1.96774
upperneck 17.7303 -8.36254 -0.765036
head 7.15329 -3.94513 -1.34539
rclavicle 4.47266e-015 -5.40694e-014
rhumerus -50.1639 -22.2945 -44.8511
rradius 20.8676
rwrist 15.203
rhand -15.6475 -14.7639
rfingers 7.12502
rthumb 10.5402 -44.4797
lclavicle 4.47266e-015 -5.40694e-014
lhumerus -60.0367 11.5743 66.836
lradius 26.5036
lwrist -17.6075
lhand 12.8717 18.6016
lfingers 7.12502
lthumb 37.8447 44.4429
rfemur -24.2536 9.67192 25.2096
rtibia 21.8306
rfoot -9.9202 -7.76208
rtoes 1.61844
lfemur -40.8693 -0.929393 -10.2166
ltibia 70.8153
lfoot -6.13761 2.48267
ltoes -15.4516
